<svg xmlns="http://www.w3.org/2000/svg" viewBox="0 0 512 512" fill="none">
  <defs>
    <linearGradient id="blade-a" x1="64" y1="448" x2="280" y2="96" gradientUnits="userSpaceOnUse">
      <stop stop-color="#67e8f9"/>
      <stop offset="1" stop-color="#0891b2"/>
    </linearGradient>
    <linearGradient id="blade-b" x1="448" y1="448" x2="232" y2="96" gradientUnits="userSpaceOnUse">
      <stop stop-color="#c4b5fd"/>
      <stop offset="1" stop-color="#7c3aed"/>
    </linearGradient>
    <linearGradient id="horizon" x1="48" y1="400" x2="464" y2="400" gradientUnits="userSpaceOnUse">
      <stop stop-color="#06b6d4" stop-opacity="0"/>
      <stop offset="0.5" stop-color="#06b6d4" stop-opacity="0.9"/>
      <stop offset="1" stop-color="#8b5cf6" stop-opacity="0"/>
    </linearGradient>
    <radialGradient id="core" cx="0" cy="0" r="1" gradientUnits="userSpaceOnUse" gradientTransform="translate(256 200) rotate(90) scale(64)">
      <stop stop-color="#ffffff"/>
      <stop offset="0.45" stop-color="#22d3ee"/>
      <stop offset="1" stop-color="#06b6d4" stop-opacity="0"/>
    </radialGradient>
    <linearGradient id="bg" x1="0" y1="0" x2="512" y2="512" gradientUnits="userSpaceOnUse">
      <stop stop-color="#020817"/>
      <stop offset="1" stop-color="#0f172a"/>
    </linearGradient>
  </defs>
  <rect width="512" height="512" rx="112" fill="url(#bg)"/>
  <rect x="24" y="24" width="464" height="464" rx="96" stroke="rgba(255,255,255,0.06)" stroke-width="2"/>
  <path d="M 88 400 Q 256 328 424 400" stroke="url(#horizon)" stroke-width="16" stroke-linecap="round" fill="none"/>
  <path d="M 120 420 L 240 100 L 268 116 L 148 420 Z" fill="url(#blade-a)"/>
  <path d="M 96 352 L 208 128" stroke="url(#blade-a)" stroke-width="24" stroke-linecap="round"/>
  <path d="M 392 420 L 272 100 L 244 116 L 364 420 Z" fill="url(#blade-b)"/>
  <path d="M 416 352 L 304 128" stroke="url(#blade-b)" stroke-width="24" stroke-linecap="round"/>
  <rect x="208" y="352" width="96" height="32" rx="16" fill="#0f172a" stroke="rgba(255,255,255,0.12)" stroke-width="2"/>
  <rect x="236" y="320" width="40" height="88" rx="20" fill="#0f172a" stroke="rgba(255,255,255,0.1)" stroke-width="2"/>
  <circle cx="256" cy="200" r="52" fill="url(#core)"/>
  <circle cx="256" cy="200" r="20" fill="#f0fdff"/>
</svg>
